<svg width="512" height="512" viewBox="0 0 512 512" fill="none" xmlns="http://www.w3.org/2000/svg">
<rect width="512" height="512" fill="#E94E1B"/>
<path d="M185.332 109.302C192.256 133.01 199.171 156.69 205.905 179.757C198.141 185.894 190.261 191.038 183.698 197.509C151.804 228.923 146.37 277.53 171.348 314.54C201.166 358.715 258.011 368.922 301.459 339.646C312.87 331.957 322.186 322.003 328.821 309.757C330.022 307.537 331.141 305.669 334.635 306.724C356.454 313.294 378.354 319.594 400.228 326.001C401.112 326.263 401.907 326.813 402.719 327.21C382.326 385.148 314.477 438.529 231.723 430.127C150.405 421.878 88.9287 357.19 81.7249 278.929C73.9253 194.287 130.436 127.757 185.332 109.302Z" fill="white"/>
<path d="M221.261 146.628C236.408 161.401 260.096 161.212 274.946 146.195C290.193 130.781 289.895 107.019 274.269 91.6951C259.257 76.9669 235.036 77.5174 220.123 92.9314C205.634 107.903 206.14 131.873 221.261 146.628Z" fill="white"/>
<path d="M365.352 290.679C350.575 275.536 350.764 251.855 365.786 237.01C381.204 221.767 404.973 222.065 420.302 237.687C435.034 252.695 434.484 276.908 419.065 291.807C404.08 306.301 380.112 305.796 365.352 290.679Z" stroke="#27348B" stroke-width="15" stroke-miterlimit="10"/>
</svg>
