<svg width="328" height="164" viewBox="0 0 328 164" fill="none" xmlns="http://www.w3.org/2000/svg">
<g clip-path="url(#clip0_3340_1280)">
<path d="M328 0H0V163.485H328V0Z" fill="#E94E1B"/>
<path d="M46.7975 16.5962C48.3869 22.025 49.9557 27.4333 51.5039 32.7176C49.7287 34.1213 47.9328 35.2979 46.4259 36.7841C39.1393 43.9675 37.8801 55.0936 43.598 63.5568C50.4099 73.6714 63.4143 76.004 73.3432 69.2953C75.9441 67.5408 78.0908 65.2701 79.5977 62.4628C79.866 61.9468 80.1344 61.5339 80.9188 61.761C85.9142 63.2679 90.9095 64.7128 95.9256 66.1784C96.132 66.2403 96.3178 66.3642 96.5035 66.4467C91.8384 79.6989 76.3156 91.919 57.4075 89.9787C38.809 88.1002 24.7518 73.2999 23.1211 55.4032C21.3252 36.041 34.2471 20.8072 46.7975 16.5962Z" fill="white"/>
<path d="M55.0113 25.1422C58.4792 28.5275 63.8874 28.4862 67.2933 25.039C70.7818 21.5092 70.7199 16.0803 67.1282 12.5712C63.7016 9.20652 58.1489 9.33037 54.7429 12.8602C51.4402 16.2661 51.5641 21.7569 55.0113 25.1422Z" fill="white"/>
<path d="M87.9523 58.0867C84.567 54.6188 84.6083 49.2106 88.0555 45.8046C91.5853 42.3161 97.0141 42.3781 100.523 45.9698C103.888 49.3964 103.764 54.9491 100.234 58.355C96.8077 61.6577 91.3376 61.5339 87.9523 58.0867Z" stroke="#27348B" stroke-width="3.09631" stroke-miterlimit="10"/>
<path d="M22.9602 149.603V130.963H27.1642V145.702H33.5716V149.603H22.9602ZM44.043 149.982C38.4714 149.982 34.318 145.981 34.318 140.283C34.318 134.584 38.4714 130.583 44.043 130.583C49.6147 130.583 53.7934 134.584 53.7934 140.283C53.7934 145.981 49.6147 149.982 44.043 149.982ZM38.674 140.283C38.674 143.702 40.9786 145.981 44.043 145.981C47.1075 145.981 49.4374 143.702 49.4374 140.283C49.4374 136.864 47.1075 134.584 44.043 134.584C40.9786 134.584 38.674 136.864 38.674 140.283ZM58.8865 149.603V134.863H54.6824V130.963H67.2946V134.863H63.0906V149.603H58.8865ZM72.5634 149.603V134.863H68.3593V130.963H80.9715V134.863H76.7674V149.603H72.5634ZM91.603 149.982C86.0313 149.982 81.8779 145.981 81.8779 140.283C81.8779 134.584 86.0313 130.583 91.603 130.583C97.1746 130.583 101.353 134.584 101.353 140.283C101.353 145.981 97.1746 149.982 91.603 149.982ZM86.2339 140.283C86.2339 143.702 88.5386 145.981 91.603 145.981C94.6674 145.981 96.9974 143.702 96.9974 140.283C96.9974 136.864 94.6674 134.584 91.603 134.584C88.5386 134.584 86.2339 136.864 86.2339 140.283Z" fill="#27348B"/>
<path d="M102.496 131.898C103.577 131.898 104.422 132.781 104.422 133.869C104.422 134.97 103.577 135.853 102.496 135.853C101.408 135.853 100.551 134.97 100.551 133.869C100.551 132.781 101.408 131.898 102.496 131.898ZM102.496 132.161C101.575 132.161 100.871 132.916 100.871 133.888C100.871 134.842 101.575 135.591 102.496 135.591C103.398 135.591 104.102 134.842 104.102 133.869C104.102 132.916 103.398 132.161 102.496 132.161ZM103.353 132.89L103.277 133.14C103.193 133.095 102.957 132.993 102.656 132.993C102.054 132.993 101.76 133.377 101.76 133.888C101.76 134.388 102.074 134.791 102.662 134.791C102.918 134.791 103.161 134.72 103.309 134.624L103.385 134.867C103.161 135.015 102.867 135.066 102.598 135.066C101.856 135.066 101.427 134.554 101.427 133.908C101.427 133.178 102.003 132.717 102.65 132.717C102.982 132.717 103.27 132.813 103.353 132.89Z" fill="#27348B"/>
<path d="M32.8362 122.386C26.9685 122.386 22.9644 118.533 22.9644 112.867C22.9644 107.201 26.9685 103.348 32.8362 103.348C33.6673 103.348 34.6242 103.423 35.556 103.574V107.427C34.7501 107.276 33.8939 107.175 33.1132 107.175C29.5372 107.175 27.2959 109.366 27.2959 112.867C27.2959 116.367 29.5372 118.558 33.1132 118.558C33.8939 118.558 34.7501 118.458 35.556 118.306V122.159C34.6242 122.311 33.6673 122.386 32.8362 122.386ZM38.5015 122.134V103.599H42.6819V122.134H38.5015ZM55.0613 122.134L50.4779 114.881V122.134H46.2975V103.599H52.5933C56.5219 103.599 58.9395 105.564 58.9395 109.366C58.9395 111.91 57.4033 113.824 54.7842 114.479L60.0979 122.134H55.0613ZM50.4779 111.532H52.3918C53.8021 111.532 54.6835 110.701 54.6835 109.366C54.6835 108.032 53.8021 107.201 52.3918 107.201H50.4779V111.532ZM71.0292 122.386C65.1615 122.386 61.1574 118.533 61.1574 112.867C61.1574 107.201 65.1615 103.348 71.0292 103.348C71.8603 103.348 72.8172 103.423 73.749 103.574V107.427C72.9432 107.276 72.0869 107.175 71.3063 107.175C67.7302 107.175 65.4889 109.366 65.4889 112.867C65.4889 116.367 67.7302 118.558 71.3063 118.558C72.0869 118.558 72.9432 118.458 73.749 118.306V122.159C72.8172 122.311 71.8603 122.386 71.0292 122.386ZM76.6945 122.134V103.599H80.8749V118.256H87.2463V122.134H76.6945ZM89.4337 122.134V103.599H99.9351V107.478H93.6141V110.827H99.8596V114.705H93.6141V118.256H100.036V122.134H89.4337Z" fill="#27348B"/>
<path d="M133.184 10.123H126.055V150.929H133.184V10.123Z" fill="white"/>
<path d="M152.112 44.9819L162.181 15.0997H168.758L178.908 44.9819H171.884L170.504 40.4752H160.435L159.054 44.9819H152.112ZM162.181 34.7099H168.717L165.429 24.1131L162.181 34.7099Z" fill="#27348B"/>
<path d="M154.669 93.7012V63.819H164.495C170.869 63.819 174.767 66.8234 174.767 71.8173C174.767 74.7 173.508 76.8924 171.234 78.0698C174.158 79.1661 175.782 81.6021 175.782 84.9314C175.782 90.2501 171.641 93.7012 165.347 93.7012H154.669ZM161.409 87.7734H165.429C167.662 87.7734 168.961 86.596 168.961 84.566C168.961 82.5359 167.662 81.3585 165.429 81.3585H161.409V87.7734ZM161.409 75.512H165.063C167.053 75.512 168.23 74.4158 168.23 72.6293C168.23 70.8429 167.053 69.7467 165.063 69.7467H161.409V75.512ZM180.402 93.7012V63.819H197.332V70.0715H187.141V75.4714H197.21V81.7239H187.141V87.4486H197.495V93.7012H180.402ZM207.229 93.7012V70.0715H200.489V63.819H220.709V70.0715H213.969V93.7012H207.229ZM229.155 93.7012V70.0715H222.415V63.819H242.635V70.0715H235.895V93.7012H229.155ZM246.18 93.7012V63.819H263.11V70.0715H252.92V75.4714H262.989V81.7239H252.92V87.4486H263.273V93.7012H246.18ZM282.711 93.7012L275.321 82.0081V93.7012H268.582V63.819H278.732C285.066 63.819 288.963 66.9858 288.963 73.1165C288.963 77.2172 286.487 80.3029 282.264 81.3585L290.831 93.7012H282.711ZM275.321 76.6082H278.407C280.681 76.6082 282.102 75.2684 282.102 73.1165C282.102 70.9647 280.681 69.6249 278.407 69.6249H275.321V76.6082Z" fill="#27348B"/>
<path d="M169.286 142.826C159.826 142.826 153.37 136.614 153.37 127.479C153.37 118.344 159.826 112.132 169.286 112.132C170.625 112.132 172.168 112.254 173.671 112.498V118.71C172.371 118.466 170.991 118.304 169.732 118.304C163.967 118.304 160.353 121.836 160.353 127.479C160.353 133.123 163.967 136.655 169.732 136.655C170.991 136.655 172.371 136.493 173.671 136.249V142.461C172.168 142.705 170.625 142.826 169.286 142.826ZM194.66 142.42V130.524H185.159V142.42H178.419V112.538H185.159V124.109H194.66V112.538H201.399V142.42H194.66ZM204.686 142.42L214.755 112.538H221.333L231.483 142.42H224.459L223.079 137.914H213.01L211.629 142.42H204.686ZM214.755 132.148H221.292L218.003 121.552L214.755 132.148ZM234.721 142.42V112.538H240.811L252.18 130.281V112.538H258.513V142.42H252.423L241.055 124.718V142.42H234.721ZM278.995 142.826C269.535 142.826 263.08 136.614 263.08 127.479C263.08 118.344 269.535 112.132 278.995 112.132C280.335 112.132 281.878 112.254 283.38 112.498V118.71C282.081 118.466 280.7 118.304 279.442 118.304C273.676 118.304 270.063 121.836 270.063 127.479C270.063 133.123 273.676 136.655 279.442 136.655C280.7 136.655 282.081 136.493 283.38 136.249V142.461C281.878 142.705 280.335 142.826 278.995 142.826ZM288.129 142.42V112.538H305.059V118.791H294.868V124.191H304.937V130.443H294.868V136.168H305.222V142.42H288.129Z" fill="#27348B"/>
</g>
<defs>
<clipPath id="clip0_3340_1280">
<rect width="328" height="163.485" fill="white"/>
</clipPath>
</defs>
</svg>
