<svg width="80" height="80" viewBox="0 0 80 80" fill="none" xmlns="http://www.w3.org/2000/svg">
<circle cx="40" cy="40" r="40" fill="#E94E1B"/>
<path d="M28.9659 17.0785C30.0478 20.7828 31.1282 24.4829 32.1805 28.0871C30.9674 29.0459 29.736 29.8497 28.7106 30.8607C23.7272 35.7693 22.8781 43.364 26.781 49.1468C31.4399 56.0493 40.322 57.6441 47.1108 53.0697C48.8937 51.8683 50.3494 50.313 51.3861 48.3995C51.5737 48.0526 51.7486 47.7607 52.2945 47.9257C55.7037 48.9522 59.1257 49.9365 62.5434 50.9377C62.6816 50.9785 62.8057 51.0646 62.9327 51.1266C59.7463 60.1794 49.1448 68.5201 36.2146 67.2073C23.5086 65.9185 13.9029 55.8109 12.7773 43.5826C11.5586 30.3573 20.3885 19.9621 28.9659 17.0785Z" fill="white"/>
<path d="M34.5798 22.9106C36.9466 25.2189 40.6478 25.1893 42.9681 22.8429C45.3505 20.4345 45.304 16.7217 42.8624 14.3274C40.5167 12.0261 36.7322 12.1121 34.402 14.5205C32.1382 16.8599 32.2171 20.6051 34.5798 22.9106Z" fill="white"/>
<path d="M57.0991 45.4182C54.7901 43.0521 54.8197 39.352 57.1668 37.0324C59.576 34.6507 63.2899 34.6973 65.685 37.1381C67.9869 39.4831 67.9009 43.2664 65.4917 45.5945C63.1502 47.8591 59.4053 47.7801 57.0991 45.4182Z" stroke="#27348B" stroke-width="2.34375" stroke-miterlimit="10"/>
</svg>
